# WaveFront *.obj file (generated by Cinema 4D)

mtllib ./RLDoor.mtl

v 378.166504 111.661133 91.013885
v 382.242706 112.148445 90.826935
v 381.958984 117.450790 87.975365
v 365.419464 110.140739 91.568886
v 365.925659 115.930344 88.995659
v 382.327087 106.449257 92.177452
v 365.302460 103.692451 92.571022
v 330.787079 120.307205 85.387283
v 348.503174 120.930962 84.892319
v 331.339874 121.759201 83.691978
v 348.716705 122.411385 83.151062
v 366.817291 121.760895 84.290192
v 367.000702 122.985306 82.726494
v 328.527252 114.171501 90.132858
v 347.293304 114.643143 89.769257
v 327.004425 107.077446 92.561661
v 346.648987 108.218674 92.198044
v 326.410370 100.417374 93.035538
v 346.104523 101.252182 92.825478
v 326.175537 93.312141 92.884682
v 345.969482 94.980637 92.820274
v 365.027039 98.173660 92.737312
v 326.164551 89.477364 92.723160
v 345.818848 91.792923 92.739517
v 364.935699 94.534569 92.723007
v 326.084595 88.619629 92.686943
v 325.971832 83.798042 92.499664
v 345.722961 85.365639 92.672363
v 345.779877 89.077621 92.675064
v 364.898041 90.699501 92.678871
v 364.663513 87.467911 92.645554
v 325.821869 79.476768 92.584702
v 345.673828 81.244034 92.672119
v 364.474609 83.458298 92.624542
v 325.546967 73.362572 92.717751
v 345.526550 75.618042 92.966103
v 364.488068 78.810600 92.762489
v 325.163452 67.836716 93.369820
v 345.449097 71.456306 93.348724
v 364.599670 74.606010 93.102211
v 324.807739 64.037010 93.924095
v 345.332764 68.206306 93.745491
v 364.611664 71.542961 93.455299
v 324.603210 61.248997 94.315926
v 345.098267 64.983192 94.237930
v 364.625153 68.504417 93.818802
v 324.593475 60.941994 94.319580
v 345.157043 64.532013 94.282532
v 324.587250 60.580574 94.265068
v 345.269989 64.079849 94.226837
v 364.606781 68.149124 93.846497
v 364.677399 67.755875 93.815285
v 324.683594 56.018681 93.377785
v 345.617645 59.271481 93.422173
v 324.780487 52.444660 92.616364
v 345.956482 54.335938 92.439560
v 324.877777 47.553288 91.439148
v 346.263885 47.881989 91.268539
v 364.929810 62.093369 93.033241
v 365.256073 55.496056 91.939705
v 365.589844 48.109051 90.849487
v 381.926544 122.340691 83.769409
v 381.814117 123.542053 82.127403
v 382.484650 101.396553 92.655914
v 382.638702 97.093460 92.878601
v 383.075867 93.621071 92.798721
v 383.025116 89.672729 92.829247
v 383.070709 85.817467 92.858971
v 383.136322 82.246651 93.080910
v 383.119019 78.754723 93.147766
v 383.017212 75.547264 93.176254
v 383.134949 71.723801 93.319687
v 383.018280 67.983719 93.270241
v 383.059509 62.242706 92.534187
v 383.233887 55.181675 91.421036
v 383.481232 48.366692 90.572243
v 390.983154 48.639210 91.057137
v 391.112854 54.265923 91.870934
v 391.866974 59.519695 92.513916
v 385.612091 68.004364 93.041191
v 390.375183 122.872765 83.094185
v 391.371429 118.401527 87.333160
v 392.371368 113.922050 90.102409
v 396.417419 99.974777 92.786140
v 394.934082 104.052437 92.451653
v 393.582062 108.812141 91.731483
v 390.406433 123.910690 81.699722
v 398.958557 124.408569 81.210548
v 399.151550 123.340515 82.827225
v 412.306396 125.753502 80.227501
v 412.678406 124.919846 81.437622
v 400.849030 119.618546 86.466972
v 413.613892 121.219788 85.175415
v 402.477753 115.648735 89.317627
v 414.655640 117.616806 88.299728
v 404.052887 111.073288 91.176971
v 415.518036 113.685188 90.462799
v 405.936981 106.386803 92.158432
v 417.153198 108.988808 91.754288
v 422.782318 126.427902 80.239716
v 422.522736 127.254906 79.182579
v 431.822388 128.147888 78.957329
v 431.388428 128.813965 78.024361
v 424.463196 122.957741 83.388649
v 434.115173 124.562195 81.540390
v 425.681976 119.622475 86.940193
v 436.034332 121.412140 85.328308
v 426.631256 116.352280 89.258011
v 437.022034 118.491829 87.997597
v 427.781250 112.139343 90.920288
v 437.119934 115.104332 89.799866
v 408.073853 102.469688 92.755028
v 418.691925 104.975616 92.524750
v 428.667542 107.615646 92.099586
v 436.491058 109.591942 91.553917
v 428.859802 103.734436 92.916718
v 435.597504 104.914177 92.680031
v 428.996429 98.339195 93.857994
v 434.569244 99.430283 93.762444
v 398.235718 96.319603 93.009911
v 410.613678 98.032959 93.291840
v 419.954102 101.240845 93.186722
v 421.503021 96.311852 93.926758
v 414.347992 93.015694 93.989067
v 401.960449 92.938622 93.397972
v 407.608276 88.618530 93.985046
v 397.062286 87.953850 93.398666
v 403.280121 84.494446 93.946373
v 387.247375 71.861137 93.260735
v 389.025177 76.042023 93.284470
v 394.076691 84.677948 93.310730
v 400.354950 81.148048 93.867363
v 391.027313 80.303886 93.241844
v 397.965240 77.672691 93.758110
v 394.582092 70.046112 93.407333
v 395.967285 73.617111 93.602905
v 392.851898 64.866577 93.013718
v 395.301086 48.746464 91.184677
v 395.514099 53.652634 91.904709
v 396.216248 58.525345 92.434402
v 397.294220 63.677464 92.882759
v 398.793671 68.449715 93.212311
v 400.403381 72.164215 93.420509
v 402.350952 75.838036 93.597878
v 404.211761 78.333702 93.682877
v 406.682678 81.438873 93.794472
v 410.740662 85.235764 93.886269
v 416.700317 89.361061 93.953995
v 422.833649 92.344093 93.966736
v 429.049591 94.088234 93.938950
v 433.770844 94.960503 93.903435
# 151 vertices

vn -0.003906 0.567250 0.823500
vn -0.001937 0.369687 0.929125
vn 0.003906 0.323250 0.946281
vn -0.001937 0.522219 0.852781
vn 0.005844 0.279594 0.960063
vn 0.003906 0.162469 0.986687
vn 0.005844 0.093875 0.995562
vn -0.007812 0.761563 0.648000
vn -0.007812 0.696219 0.717750
vn -0.003906 0.675094 0.737688
vn -0.009750 0.768656 0.639562
vn -0.007812 0.712906 0.701156
vn -0.009781 0.787094 0.616750
vn 0.000000 0.491281 0.870969
vn 0.001937 0.455781 0.890063
vn 0.005875 0.229125 0.973344
vn 0.007812 0.193844 0.980969
vn 0.007812 0.048937 0.998750
vn 0.009750 0.031281 0.999438
vn 0.005844 -0.011719 0.999906
vn 0.005844 -0.023469 0.999687
vn 0.001937 0.021500 0.999750
vn 0.003906 -0.025406 0.999656
vn 0.003906 -0.033219 0.999438
vn 0.000000 -0.007812 0.999969
vn -0.001937 -0.003906 0.999969
vn -0.005844 -0.003906 0.999969
vn -0.001937 -0.025406 0.999656
vn 0.000000 -0.019562 0.999781
vn -0.001937 -0.009781 0.999937
vn -0.003906 -0.001937 0.999969
vn -0.003906 0.021500 0.999750
vn -0.009750 0.025406 0.999625
vn -0.007812 0.021500 0.999719
vn -0.007812 0.066500 0.997750
vn -0.017625 0.074406 0.997063
vn -0.011719 0.054812 0.998406
vn -0.013687 0.111469 0.993656
vn -0.021500 0.121344 0.992375
vn -0.007812 0.078313 0.996875
vn -0.013687 0.133156 0.990969
vn -0.021500 0.140813 0.989781
vn -0.007812 0.109563 0.993937
vn -0.007812 0.107625 0.994156
vn -0.013687 0.093875 0.995469
vn 0.001937 0.097750 0.995188
vn 0.015625 -0.021500 0.999625
vn 0.011719 -0.050906 0.998625
vn 0.035188 -0.136937 0.989937
vn 0.027406 -0.156687 0.987250
vn 0.021500 0.003906 0.999750
vn 0.035219 -0.101750 0.994156
vn 0.035188 -0.176000 0.983750
vn 0.027344 -0.189625 0.981469
vn 0.029344 -0.185844 0.982125
vn 0.023469 -0.203562 0.978750
vn 0.025438 -0.182094 0.982938
vn 0.019562 -0.205469 0.978437
vn 0.035188 -0.152531 0.987656
vn 0.029344 -0.158594 0.986875
vn 0.025438 -0.146844 0.988813
vn -0.003906 0.732063 0.681188
vn -0.005844 0.800687 0.599031
vn 0.000000 0.068438 0.997625
vn -0.005844 0.021500 0.999750
vn -0.013687 0.011719 0.999812
vn -0.021500 0.015625 0.999625
vn -0.027375 0.025406 0.999281
vn -0.023438 0.033219 0.999156
vn -0.015625 0.033219 0.999313
vn -0.003906 0.041031 0.999125
vn 0.023469 0.001937 0.999719
vn 0.050906 -0.086156 0.994969
vn 0.003906 -0.127156 0.991844
vn -0.017594 -0.140844 0.989844
vn -0.021531 -0.133156 0.990844
vn -0.041094 -0.131125 0.990500
vn -0.046906 -0.138781 0.989187
vn -0.025438 -0.105656 0.994062
vn 0.019531 -0.070375 0.997312
vn -0.009781 0.604656 0.796406
vn -0.009781 0.749719 0.661625
vn -0.005844 0.418781 0.908031
vn -0.009781 0.066500 0.997719
vn -0.001937 0.119438 0.992813
vn 0.000000 0.226844 0.973906
vn -0.013687 0.812187 0.583188
vn -0.045000 0.812375 0.581375
vn -0.023438 0.760406 0.649000
vn -0.029344 0.821625 0.569250
vn -0.027406 0.755906 0.654063
vn -0.013687 0.641656 0.766844
vn -0.011719 0.675031 0.737656
vn -0.011719 0.487406 0.873062
vn -0.015625 0.569438 0.821875
vn -0.007812 0.295563 0.955281
vn -0.007812 0.377781 0.925844
vn -0.005844 0.172312 0.985000
vn -0.003906 0.232844 0.972500
vn -0.056750 0.792781 0.606812
vn -0.025438 0.731844 0.680969
vn -0.060625 0.788312 0.612250
vn -0.017625 0.706969 0.706969
vn -0.003906 0.690281 0.723500
vn 0.000000 0.699219 0.714875
vn -0.011719 0.651219 0.758781
vn -0.011719 0.685188 0.728250
vn -0.003906 0.477469 0.878625
vn -0.003906 0.532781 0.846219
vn 0.003906 0.309156 0.950969
vn 0.005844 0.365625 0.930719
vn -0.011719 0.178000 0.983938
vn -0.017594 0.123281 0.992188
vn 0.007812 0.256312 0.966531
vn 0.000000 0.207375 0.978250
vn -0.009781 0.187813 0.982125
vn -0.001937 0.123281 0.992344
vn -0.005844 0.097750 0.995188
vn -0.023469 0.054781 0.998219
vn -0.025406 0.152594 0.987938
vn -0.033250 0.105625 0.993844
vn -0.015656 0.078313 0.996781
vn -0.021531 0.052844 0.998344
vn -0.023438 0.029313 0.999281
vn -0.043000 0.062563 0.997094
vn -0.027375 0.007812 0.999594
vn -0.050875 0.033250 0.998125
vn -0.005844 -0.019562 0.999781
vn -0.029313 0.005844 0.999531
vn -0.029313 -0.003906 0.999531
vn -0.050875 0.029344 0.998250
vn -0.039094 0.013656 0.999125
vn -0.025406 -0.013687 0.999563
vn -0.007812 -0.052844 0.998563
vn -0.013687 -0.029313 0.999469
vn -0.011750 -0.076375 0.997000
vn -0.021500 -0.129031 0.991375
vn -0.027344 -0.142719 0.989375
vn -0.007812 -0.101812 0.994750
vn 0.007812 -0.084156 0.996406
vn 0.017594 -0.070375 0.997344
vn 0.019562 -0.058688 0.998062
vn 0.017594 -0.048937 0.998625
vn 0.015656 -0.043063 0.998937
vn 0.011719 -0.035188 0.999281
vn 0.007812 -0.021500 0.999719
vn 0.003906 -0.005844 0.999969
vn 0.001937 0.007812 0.999937
vn 0.003906 0.019562 0.999781
vn 0.007812 0.023469 0.999687
# 150 normals

vt 0.518467 0.874567 0.000000
vt 0.519157 0.822748 0.000000
vt 0.483960 0.819484 0.000000
vt 0.000000 1.000000 0.000000
vt 0.380217 0.863703 0.000000
vt 0.373937 0.809469 0.000000
vt 0.518185 0.772372 0.000000
vt 0.371031 0.753438 0.000000
vt 0.085802 0.942392 0.000000
vt 0.232668 0.924629 0.000000
vt 0.080368 0.923409 0.000000
vt 0.235194 0.944181 0.000000
vt 0.390151 0.927724 0.000000
vt 0.392302 0.944714 0.000000
vt 0.219779 0.856692 0.000000
vt 0.058505 0.857582 0.000000
vt 0.212125 0.797916 0.000000
vt 0.043122 0.793705 0.000000
vt 0.205383 0.738015 0.000000
vt 0.036043 0.736579 0.000000
vt 0.202398 0.684195 0.000000
vt 0.031956 0.675650 0.000000
vt 0.367056 0.706073 0.000000
vt 0.200176 0.656853 0.000000
vt 0.030744 0.642704 0.000000
vt 0.365205 0.674826 0.000000
vt 0.197474 0.601675 0.000000
vt 0.027424 0.593969 0.000000
vt 0.029808 0.635356 0.000000
vt 0.199049 0.633538 0.000000
vt 0.363754 0.641883 0.000000
vt 0.360788 0.614187 0.000000
vt 0.195846 0.566292 0.000000
vt 0.024881 0.556911 0.000000
vt 0.357981 0.579795 0.000000
vt 0.192936 0.517953 0.000000
vt 0.020733 0.504502 0.000000
vt 0.356726 0.539853 0.000000
vt 0.191065 0.482095 0.000000
vt 0.015901 0.456846 0.000000
vt 0.356456 0.503588 0.000000
vt 0.189131 0.454024 0.000000
vt 0.011804 0.423983 0.000000
vt 0.355656 0.477099 0.000000
vt 0.186200 0.426114 0.000000
vt 0.009283 0.399869 0.000000
vt 0.354874 0.450809 0.000000
vt 0.186574 0.422206 0.000000
vt 0.009100 0.397008 0.000000
vt 0.187427 0.418266 0.000000
vt 0.008955 0.393872 0.000000
vt 0.354610 0.447753 0.000000
vt 0.355113 0.444344 0.000000
vt 0.189230 0.376353 0.000000
vt 0.008659 0.353933 0.000000
vt 0.190965 0.333080 0.000000
vt 0.008627 0.322528 0.000000
vt 0.192047 0.276682 0.000000
vt 0.008284 0.279293 0.000000
vt 0.355866 0.395148 0.000000
vt 0.357051 0.337644 0.000000
vt 0.358089 0.273441 0.000000
vt 0.520011 0.929958 0.000000
vt 0.519618 0.947442 0.000000
vt 0.518057 0.728695 0.000000
vt 0.518121 0.691609 0.000000
vt 0.520857 0.661623 0.000000
vt 0.519252 0.627695 0.000000
vt 0.518496 0.594539 0.000000
vt 0.518042 0.563760 0.000000
vt 0.516866 0.533729 0.000000
vt 0.515048 0.506170 0.000000
vt 0.514948 0.473219 0.000000
vt 0.512830 0.441086 0.000000
vt 0.511751 0.391308 0.000000
vt 0.511351 0.329838 0.000000
vt 0.511711 0.270835 0.000000
vt 0.578897 0.320460 0.000000
vt 0.576263 0.271730 0.000000
vt 0.586745 0.365683 0.000000
vt 0.535234 0.440414 0.000000
vt 0.599679 0.881774 0.000000
vt 0.592783 0.934992 0.000000
vt 0.606808 0.836225 0.000000
vt 0.637458 0.712326 0.000000
vt 0.625900 0.747952 0.000000
vt 0.615675 0.789752 0.000000
vt 0.593500 0.949907 0.000000
vt 0.782087 0.964440 0.000000
vt 0.668300 0.937116 0.000000
vt 0.667068 0.953797 0.000000
vt 0.784986 0.951746 0.000000
vt 0.681530 0.891974 0.000000
vt 0.791706 0.906344 0.000000
vt 0.694250 0.849550 0.000000
vt 0.799478 0.865145 0.000000
vt 0.706421 0.806664 0.000000
vt 0.805662 0.826412 0.000000
vt 0.721217 0.764929 0.000000
vt 0.818322 0.784195 0.000000
vt 0.870309 0.977260 0.000000
vt 0.872270 0.965685 0.000000
vt 0.946873 0.991716 0.000000
vt 0.950407 0.981809 0.000000
vt 0.885554 0.925009 0.000000
vt 0.969083 0.943408 0.000000
vt 0.894787 0.882878 0.000000
vt 0.984264 0.900621 0.000000
vt 0.901839 0.848233 0.000000
vt 0.991716 0.866440 0.000000
vt 0.910421 0.809059 0.000000
vt 0.991423 0.833512 0.000000
vt 0.830337 0.748687 0.000000
vt 0.738420 0.730259 0.000000
vt 0.916673 0.768727 0.000000
vt 0.984354 0.784063 0.000000
vt 0.975310 0.743048 0.000000
vt 0.917183 0.734666 0.000000
vt 0.964875 0.695398 0.000000
vt 0.916762 0.687677 0.000000
vt 0.652015 0.680301 0.000000
vt 0.840076 0.715785 0.000000
vt 0.758928 0.691136 0.000000
vt 0.851912 0.672589 0.000000
vt 0.789529 0.646591 0.000000
vt 0.730343 0.611007 0.000000
vt 0.683059 0.650004 0.000000
vt 0.691941 0.576978 0.000000
vt 0.639468 0.608648 0.000000
vt 0.550384 0.473216 0.000000
vt 0.566880 0.508671 0.000000
vt 0.665823 0.549172 0.000000
vt 0.612813 0.581408 0.000000
vt 0.585313 0.544730 0.000000
vt 0.644262 0.520084 0.000000
vt 0.612948 0.455598 0.000000
vt 0.625890 0.485876 0.000000
vt 0.596637 0.411509 0.000000
vt 0.616500 0.314116 0.000000
vt 0.613344 0.271642 0.000000
vt 0.623795 0.355975 0.000000
vt 0.634418 0.400028 0.000000
vt 0.648613 0.440610 0.000000
vt 0.663510 0.472027 0.000000
vt 0.681319 0.502973 0.000000
vt 0.698039 0.523815 0.000000
vt 0.720181 0.549700 0.000000
vt 0.756155 0.581007 0.000000
vt 0.808553 0.614511 0.000000
vt 0.862085 0.638161 0.000000
vt 0.915928 0.651204 0.000000
vt 0.956690 0.657272 0.000000
# 152 texture coordinates

g Low
usemtl Mat_1
f 1/3/3 2/2/2 3/1/1
f 4/6/5 1/3/3 5/5/4
f 1/3/3 3/1/1 5/5/4
f 1/3/3 6/7/6 2/2/2
f 4/6/5 7/8/7 1/3/3
f 7/8/7 6/7/6 1/3/3
f 8/11/10 9/10/9 10/9/8
f 9/10/9 11/12/11 10/9/8
f 11/12/11 9/10/9 12/13/12
f 11/12/11 12/13/12 13/14/13
f 14/16/15 15/15/14 8/11/10
f 15/15/14 9/10/9 8/11/10
f 9/10/9 15/15/14 5/5/4
f 9/10/9 5/5/4 12/13/12
f 14/16/15 16/18/17 17/17/16
f 14/16/15 17/17/16 15/15/14
f 4/6/5 5/5/4 15/15/14
f 4/6/5 15/15/14 17/17/16
f 16/18/17 18/20/19 19/19/18
f 16/18/17 19/19/18 17/17/16
f 19/19/18 7/8/7 17/17/16
f 7/8/7 4/6/5 17/17/16
f 18/20/19 20/22/21 21/21/20
f 18/20/19 21/21/20 19/19/18
f 22/23/22 7/8/7 19/19/18
f 22/23/22 19/19/18 21/21/20
f 20/22/21 23/25/24 24/24/23
f 20/22/21 24/24/23 21/21/20
f 25/26/25 22/23/22 21/21/20
f 25/26/25 21/21/20 24/24/23
f 26/29/28 27/28/27 28/27/26
f 26/29/28 28/27/26 29/30/29
f 26/29/28 29/30/29 23/25/24
f 29/30/29 24/24/23 23/25/24
f 29/30/29 30/31/30 24/24/23
f 30/31/30 25/26/25 24/24/23
f 28/27/26 31/32/31 29/30/29
f 31/32/31 30/31/30 29/30/29
f 32/34/33 33/33/32 27/28/27
f 33/33/32 28/27/26 27/28/27
f 33/33/32 34/35/34 28/27/26
f 34/35/34 31/32/31 28/27/26
f 35/37/36 36/36/35 32/34/33
f 36/36/35 33/33/32 32/34/33
f 36/36/35 37/38/37 33/33/32
f 37/38/37 34/35/34 33/33/32
f 38/40/39 39/39/38 35/37/36
f 39/39/38 36/36/35 35/37/36
f 39/39/38 40/41/40 36/36/35
f 40/41/40 37/38/37 36/36/35
f 41/43/42 42/42/41 38/40/39
f 42/42/41 39/39/38 38/40/39
f 42/42/41 43/44/43 39/39/38
f 43/44/43 40/41/40 39/39/38
f 44/46/45 45/45/44 41/43/42
f 45/45/44 42/42/41 41/43/42
f 45/45/44 46/47/46 42/42/41
f 46/47/46 43/44/43 42/42/41
f 44/46/45 47/49/48 48/48/47
f 44/46/45 48/48/47 45/45/44
f 47/49/48 49/51/50 50/50/49
f 47/49/48 50/50/49 48/48/47
f 48/48/47 51/52/51 45/45/44
f 51/52/51 46/47/46 45/45/44
f 50/50/49 52/53/52 51/52/51
f 50/50/49 51/52/51 48/48/47
f 53/55/54 54/54/53 49/51/50
f 54/54/53 50/50/49 49/51/50
f 53/55/54 55/57/56 56/56/55
f 53/55/54 56/56/55 54/54/53
f 55/57/56 57/59/58 58/58/57
f 55/57/56 58/58/57 56/56/55
f 50/50/49 54/54/53 59/60/59
f 50/50/49 59/60/59 52/53/52
f 54/54/53 56/56/55 60/61/60
f 54/54/53 60/61/60 59/60/59
f 56/56/55 58/58/57 60/61/60
f 58/58/57 61/62/61 60/61/60
f 13/14/13 12/13/12 62/63/62
f 13/14/13 62/63/62 63/64/63
f 12/13/12 5/5/4 3/1/1
f 12/13/12 3/1/1 62/63/62
f 7/8/7 22/23/22 64/65/64
f 7/8/7 64/65/64 6/7/6
f 22/23/22 25/26/25 65/66/65
f 22/23/22 65/66/65 64/65/64
f 30/31/30 66/67/66 25/26/25
f 66/67/66 65/66/65 25/26/25
f 31/32/31 67/68/67 30/31/30
f 67/68/67 66/67/66 30/31/30
f 34/35/34 68/69/68 31/32/31
f 68/69/68 67/68/67 31/32/31
f 37/38/37 69/70/69 34/35/34
f 69/70/69 68/69/68 34/35/34
f 40/41/40 70/71/70 37/38/37
f 70/71/70 69/70/69 37/38/37
f 43/44/43 71/72/71 40/41/40
f 71/72/71 70/71/70 40/41/40
f 46/47/46 51/52/51 72/73/72
f 46/47/46 72/73/72 71/72/71
f 71/72/71 43/44/43 46/47/46
f 52/53/52 73/74/73 51/52/51
f 73/74/73 72/73/72 51/52/51
f 59/60/59 74/75/74 73/74/73
f 59/60/59 73/74/73 52/53/52
f 60/61/60 75/76/75 74/75/74
f 60/61/60 74/75/74 59/60/59
f 61/62/61 76/77/76 75/76/75
f 61/62/61 75/76/75 60/61/60
f 76/77/76 77/79/78 78/78/77
f 76/77/76 78/78/77 75/76/75
f 75/76/75 78/78/77 79/80/79
f 75/76/75 79/80/79 74/75/74
f 74/75/74 80/81/80 73/74/73
f 81/83/82 62/63/62 82/82/81
f 62/63/62 3/1/1 82/82/81
f 82/82/81 3/1/1 83/84/83
f 3/1/1 2/2/2 83/84/83
f 65/66/65 84/85/84 64/65/64
f 84/85/84 85/86/85 64/65/64
f 64/65/64 85/86/85 6/7/6
f 85/86/85 86/87/86 6/7/6
f 62/63/62 81/83/82 63/64/63
f 81/83/82 87/88/87 63/64/63
f 88/91/90 89/90/89 90/89/88
f 89/90/89 91/92/91 90/89/88
f 89/90/89 92/93/92 91/92/91
f 92/93/92 93/94/93 91/92/91
f 92/93/92 94/95/94 93/94/93
f 94/95/94 95/96/95 93/94/93
f 94/95/94 96/97/96 95/96/95
f 96/97/96 97/98/97 95/96/95
f 96/97/96 98/99/98 97/98/97
f 98/99/98 99/100/99 97/98/97
f 100/102/101 101/101/100 91/92/91
f 101/101/100 90/89/88 91/92/91
f 100/102/101 102/104/103 103/103/102
f 100/102/101 103/103/102 101/101/100
f 93/94/93 104/105/104 100/102/101
f 93/94/93 100/102/101 91/92/91
f 104/105/104 105/106/105 102/104/103
f 104/105/104 102/104/103 100/102/101
f 95/96/95 106/107/106 104/105/104
f 95/96/95 104/105/104 93/94/93
f 106/107/106 107/108/107 105/106/105
f 106/107/106 105/106/105 104/105/104
f 97/98/97 108/109/108 95/96/95
f 108/109/108 106/107/106 95/96/95
f 108/109/108 109/110/109 107/108/107
f 108/109/108 107/108/107 106/107/106
f 99/100/99 110/111/110 108/109/108
f 99/100/99 108/109/108 97/98/97
f 110/111/110 111/112/111 108/109/108
f 111/112/111 109/110/109 108/109/108
f 83/84/83 2/2/2 86/87/86
f 2/2/2 6/7/6 86/87/86
f 112/114/113 113/113/112 99/100/99
f 112/114/113 99/100/99 98/99/98
f 113/113/112 114/115/86 99/100/99
f 114/115/86 110/111/110 99/100/99
f 114/115/86 115/116/114 110/111/110
f 115/116/114 111/112/111 110/111/110
f 114/115/86 116/118/116 117/117/115
f 114/115/86 117/117/115 115/116/114
f 116/118/116 118/120/118 119/119/117
f 116/118/116 119/119/117 117/117/115
f 66/67/66 120/121/119 84/85/84
f 66/67/66 84/85/84 65/66/65
f 121/123/121 122/122/120 113/113/112
f 121/123/121 113/113/112 112/114/113
f 122/122/120 116/118/116 113/113/112
f 116/118/116 114/115/86 113/113/112
f 122/122/120 123/124/122 118/120/118
f 122/122/120 118/120/118 116/118/116
f 121/123/121 124/125/123 122/122/120
f 124/125/123 123/124/122 122/122/120
f 121/123/121 125/127/125 126/126/124
f 121/123/121 126/126/124 124/125/123
f 125/127/125 127/129/127 128/128/126
f 125/127/125 128/128/126 126/126/124
f 121/123/121 120/121/119 125/127/125
f 129/130/128 72/73/72 80/81/80
f 72/73/72 73/74/73 80/81/80
f 130/131/129 71/72/71 129/130/128
f 71/72/71 72/73/72 129/130/128
f 127/129/127 131/133/131 132/132/130
f 127/129/127 132/132/130 128/128/126
f 68/69/68 127/129/127 67/68/67
f 127/129/127 125/127/125 67/68/67
f 69/70/69 131/133/131 68/69/68
f 131/133/131 127/129/127 68/69/68
f 70/71/70 133/134/132 69/70/69
f 133/134/132 131/133/131 69/70/69
f 133/134/132 134/135/133 131/133/131
f 134/135/133 132/132/130 131/133/131
f 71/72/71 130/131/129 70/71/70
f 130/131/129 133/134/132 70/71/70
f 130/131/129 129/130/128 135/136/134
f 130/131/129 135/136/134 136/137/135
f 80/81/80 137/138/136 129/130/128
f 137/138/136 135/136/134 129/130/128
f 85/86/85 98/99/98 96/97/96
f 85/86/85 96/97/96 86/87/86
f 81/83/82 89/90/89 87/88/87
f 89/90/89 88/91/90 87/88/87
f 84/85/84 112/114/113 98/99/98
f 84/85/84 98/99/98 85/86/85
f 120/121/119 121/123/121 112/114/113
f 120/121/119 112/114/113 84/85/84
f 120/121/119 66/67/66 67/68/67
f 120/121/119 67/68/67 125/127/125
f 82/82/81 92/93/92 89/90/89
f 82/82/81 89/90/89 81/83/82
f 83/84/83 94/95/94 92/93/92
f 83/84/83 92/93/92 82/82/81
f 86/87/86 96/97/96 94/95/94
f 86/87/86 94/95/94 83/84/83
f 136/137/135 134/135/133 133/134/132
f 136/137/135 133/134/132 130/131/129
f 77/79/78 138/140/138 139/139/137
f 77/79/78 139/139/137 78/78/77
f 74/75/74 79/80/79 137/138/136
f 74/75/74 137/138/136 80/81/80
f 79/80/79 78/78/77 140/141/139
f 78/78/77 139/139/137 140/141/139
f 137/138/136 79/80/79 141/142/140
f 79/80/79 140/141/139 141/142/140
f 137/138/136 141/142/140 142/143/141
f 137/138/136 142/143/141 135/136/134
f 135/136/134 142/143/141 136/137/135
f 142/143/141 143/144/142 136/137/135
f 136/137/135 143/144/142 134/135/133
f 143/144/142 144/145/143 134/135/133
f 144/145/143 145/146/144 132/132/130
f 144/145/143 132/132/130 134/135/133
f 145/146/144 146/147/145 128/128/126
f 145/146/144 128/128/126 132/132/130
f 128/128/126 146/147/145 126/126/124
f 146/147/145 147/148/146 126/126/124
f 126/126/124 147/148/146 124/125/123
f 147/148/146 148/149/147 124/125/123
f 148/149/147 149/150/148 123/124/122
f 148/149/147 123/124/122 124/125/123
f 123/124/122 149/150/148 150/151/149
f 123/124/122 150/151/149 118/120/118
f 150/151/149 151/152/150 118/120/118
f 151/152/150 119/119/117 118/120/118

